Source : L-S
 
http://www.imdb.com/title/tt2087720/

Format : AVI
Format/Info : Audio Video Interleave
File size : 699 MiB
Duration : 1h 20mn
Overall bit rate : 1 211 Kbps
Writing library : VirtualDub build 32842/release

Video
ID : 0
Format : MPEG-4 Visual
Format profile : Advanced Simple@L5
Format settings, BVOP : 4
Format settings, QPel : No
Format settings, GMC : No warppoints
Format settings, Matrix : Default (H.263)
Muxing mode : Packed bitstream
Codec ID : XVID
Codec ID/Hint : XviD
Duration : 1h 20mn
Bit rate : 1 074 Kbps
Width : 640 pixels
Height : 272 pixels
Display aspect ratio : 2.35:1
Frame rate : 25.000 fps
Color space : YUV
Chroma subsampling : 4:2:0
Bit depth : 8 bits
Scan type : Progressive
Compression mode : Lossy
Bits/(Pixel*Frame) : 0.247
Stream size : 620 MiB (89%)
Writing library : XviD 64

Audio
ID : 1
Format : MPEG Audio
Format version : Version 1
Format profile : Layer 3
Codec ID : 55
Codec ID/Hint : MP3
Duration : 1h 20mn
Bit rate mode : Constant
Bit rate : 128 Kbps
Channel(s) : 2 channels
Sampling rate : 44.1 KHz
Compression mode : Lossy
Stream size : 73.9 MiB (11%)
Alignment : Split accross interleaves
Interleave, duration : 40 ms (1.00 video frame)
Interleave, preload duration : 500 ms
Writing library : LAME3.99r
Encoding settings : -m s -V 4 -q 3 -lowpass 17 -b 128


Plot
The Draymen Estate has become an urban legend.
Amongst the sinister stories of unsavoury locals
and brutal violence, several people have apparently
gone missing. But even the police won't go there.
Enter two naive student filmmakers with a well-meaning
plan to make a sympathetic documentary of life on the estate.
They soon discover, however, that problems of drugs and crime
in this community go way beyond the norm. A community, which
is about to present the students with material of unimaginable
horror urning their final project into their darkest nightmare.

 
http://www.shotpix.com/images/84746916100990410181.png 
http://www.shotpix.com/images/26258386688719884043.png 
http://www.shotpix.com/images/68484622028040915325.png